<?xml version="1.0" encoding="UTF-8"?>
<!DOCTYPE svg PUBLIC "-//W3C//DTD SVG 1.1//EN" "http://www.w3.org/Graphics/SVG/1.1/DTD/svg11.dtd">
<!-- Creator: CorelDRAW -->
<svg xmlns="http://www.w3.org/2000/svg" xml:space="preserve" width="172.061mm" height="48.0915mm" version="1.1" shape-rendering="geometricPrecision" text-rendering="geometricPrecision" image-rendering="optimizeQuality" fill-rule="evenodd" clip-rule="evenodd"
viewBox="0 0 17205.82 4809.08"
 xmlns:xlink="http://www.w3.org/1999/xlink"
 xmlns:xodm="http://www.corel.com/coreldraw/odm/2003">
 <g id="Layer_x0020_1">
  <metadata id="CorelCorpID_0Corel-Layer"/>
  <g id="b">
   <polyline fill="none" stroke="black" stroke-width="52.92" stroke-miterlimit="22.9256" points="2227.34,4294.82 2227.34,3888.42 1771.46,3432.55 1065.57,3432.55 37.42,2404.39 1065.3,1376.5 1771.2,1376.5 2227.08,920.63 2227.08,514.23 "/>
   <polyline fill="none" stroke="black" stroke-width="52.92" stroke-miterlimit="22.9256" points="3179.29,4308.56 1275.38,2404.39 3179.29,500.48 "/>
   <polyline fill="none" stroke="black" stroke-width="52.92" stroke-miterlimit="22.9256" points="14978.74,4294.82 14978.74,3888.42 15434.62,3432.55 16140.51,3432.55 17168.4,2404.65 16140.51,1376.76 15434.61,1376.77 14978.73,920.9 14978.73,514.5 "/>
   <polyline fill="none" stroke="black" stroke-width="52.92" stroke-miterlimit="22.9256" points="14026.79,4308.56 15930.7,2404.39 14026.79,500.48 "/>
   <polygon fill="none" stroke="black" stroke-width="211.67" stroke-miterlimit="22.9256" points="15603.14,1004.23 15603.14,514.23 8786.79,514.23 8421.93,149.65 8057.35,514.23 1240.99,514.23 1240.99,1004.23 750.99,1004.23 750.99,3804.81 1240.99,3804.81 1240.99,4294.82 8057.35,4294.82 8421.93,4659.4 8786.53,4294.82 15603.14,4294.82 15603.14,3804.81 16093.15,3804.81 16093.15,1004.23 "/>
  </g>
 </g>
</svg>
