<?xml version="1.0" encoding="UTF-8"?>
<!DOCTYPE svg PUBLIC "-//W3C//DTD SVG 1.1//EN" "http://www.w3.org/Graphics/SVG/1.1/DTD/svg11.dtd">
<!-- Creator: CorelDRAW -->
<svg xmlns="http://www.w3.org/2000/svg" xml:space="preserve" width="58.7614mm" height="44.1708mm" version="1.1" shape-rendering="geometricPrecision" text-rendering="geometricPrecision" image-rendering="optimizeQuality" fill-rule="evenodd" clip-rule="evenodd"
viewBox="0 0 5876.14 4417.08"
 xmlns:xlink="http://www.w3.org/1999/xlink"
 xmlns:xodm="http://www.corel.com/coreldraw/odm/2003">
 <g id="Layer_x0020_1">
  <metadata id="CorelCorpID_0Corel-Layer"/>
  <g id="b">
   <path fill="none" stroke="white" stroke-width="52.92" stroke-miterlimit="22.9256" d="M2194.46 3529.1c0,-283.9 683.95,-295.54 747.71,-712.79 63.76,417.25 747.71,428.89 747.71,712.79 0,283.9 -683.95,295.54 -747.71,712.79 -63.76,-417.25 -747.71,-428.89 -747.71,-712.79z"/>
   <line fill="none" stroke="white" stroke-width="52.92" stroke-miterlimit="22.9256" x1="2942.17" y1="2816.32" x2="2942.17" y2= "480.84" />
   <rect fill="none" stroke="white" stroke-width="52.92" stroke-miterlimit="22.9256" transform="matrix(0.707107 0.707107 -7.07107E-001 0.707107 2942.21 37.4218)" width="334.7" height="334.7"/>
   <line fill="none" stroke="white" stroke-width="52.92" stroke-miterlimit="22.9256" x1="2705.63" y1="274.2" x2="-0" y2= "274.2" />
   <line fill="none" stroke="white" stroke-width="52.92" stroke-miterlimit="22.9256" x1="5876.14" y1="274.2" x2="3170.51" y2= "274.2" />
   <polyline fill="none" stroke="white" stroke-width="211.67" stroke-miterlimit="22.9256" points="5208.06,274.2 5208.06,562.33 3767.67,562.33 2940.05,1390.21 2112.17,562.33 671.78,562.33 671.78,274.2 "/>
   <rect fill="none" stroke="white" stroke-width="52.92" stroke-miterlimit="22.9256" transform="matrix(0.707107 0.707107 -7.07107E-001 0.707107 2942.09 2929.47)" width="307.45" height="307.45"/>
  </g>
 </g>
</svg>
