<?xml version="1.0" encoding="UTF-8"?>
<!DOCTYPE svg PUBLIC "-//W3C//DTD SVG 1.1//EN" "http://www.w3.org/Graphics/SVG/1.1/DTD/svg11.dtd">
<!-- Creator: CorelDRAW -->
<svg xmlns="http://www.w3.org/2000/svg" xml:space="preserve" width="84.8997mm" height="84.8996mm" version="1.1" shape-rendering="geometricPrecision" text-rendering="geometricPrecision" image-rendering="optimizeQuality" fill-rule="evenodd" clip-rule="evenodd"
viewBox="0 0 8489.98 8489.97"
 xmlns:xlink="http://www.w3.org/1999/xlink"
 xmlns:xodm="http://www.corel.com/coreldraw/odm/2003">
 <g id="Layer_x0020_1">
  <metadata id="CorelCorpID_0Corel-Layer"/>
  <g id="b">
   <polyline fill="none" stroke="white" stroke-width="211.67" stroke-miterlimit="22.9256" points="5605.74,4808.82 5605.74,3681.42 4808.82,2884.23 "/>
   <polygon fill="none" stroke="white" stroke-width="211.67" stroke-miterlimit="22.9256" points="597.96,2884.23 7892.01,2884.23 8384.14,3376.36 8384.14,5113.89 7892.01,5606.02 597.96,5606.01 105.83,5113.88 105.84,3376.35 597.97,2884.22 "/>
   <polygon fill="none" stroke="white" stroke-width="211.67" stroke-miterlimit="22.9256" points="703.8,5861.59 5861.59,703.8 6557.71,703.8 7786.17,1932.26 7786.17,2628.38 2628.38,7786.17 1932.26,7786.17 703.8,6557.71 "/>
   <polygon fill="none" stroke="white" stroke-width="211.67" stroke-miterlimit="22.9256" points="5605.74,597.96 5605.74,7892.01 5113.61,8384.14 3376.35,8384.13 2884.22,7892 2884.23,597.96 3376.35,105.84 5113.88,105.84 5606.01,597.97 "/>
   <polygon fill="none" stroke="white" stroke-width="211.67" stroke-miterlimit="22.9256" points="2628.38,703.8 7785.91,5861.33 7785.91,6557.45 6557.45,7785.91 5861.33,7785.91 703.8,2628.38 703.8,1932.26 1932.52,703.8 2628.64,703.8 "/>
   <polygon fill="none" stroke="white" stroke-width="52.92" stroke-miterlimit="22.9256" points="5600.98,6541.84 2888.99,6541.84 1948.13,5600.98 1948.13,2888.99 2888.99,1948.13 5600.98,1948.13 6541.84,2888.99 6541.84,5600.98 "/>
  </g>
 </g>
</svg>
