<?xml version="1.0" encoding="UTF-8"?>
<!DOCTYPE svg PUBLIC "-//W3C//DTD SVG 1.1//EN" "http://www.w3.org/Graphics/SVG/1.1/DTD/svg11.dtd">
<!-- Creator: CorelDRAW -->
<svg xmlns="http://www.w3.org/2000/svg" xml:space="preserve" width="98.0527mm" height="98.0528mm" version="1.1" shape-rendering="geometricPrecision" text-rendering="geometricPrecision" image-rendering="optimizeQuality" fill-rule="evenodd" clip-rule="evenodd"
viewBox="0 0 9805.3 9805.31"
 xmlns:xlink="http://www.w3.org/1999/xlink"
 xmlns:xodm="http://www.corel.com/coreldraw/odm/2003">
 <g id="Layer_x0020_1">
  <metadata id="CorelCorpID_0Corel-Layer"/>
  <g id="b">
   <polygon fill="none" stroke="white" stroke-width="211.67" stroke-miterlimit="22.9256" points="6073.16,6073.17 6073.16,8463.16 4889.93,9654.31 3732.11,8463.16 3732.11,6073.17 4417.65,6073.17 4902.64,6557.88 5387.62,6073.17 "/>
   <polygon fill="none" stroke="white" stroke-width="211.67" stroke-miterlimit="22.9256" points="6073.16,1341.87 6073.16,3731.86 5387.62,3731.86 4902.64,3246.88 4417.65,3731.86 3732.11,3731.86 3732.11,1341.87 4889.93,150.98 "/>
   <polygon fill="none" stroke="white" stroke-width="211.67" stroke-miterlimit="22.9256" points="3732.11,4417.66 3247.13,4902.65 3732.11,5387.37 3732.11,6073.17 1341.86,6073.17 150.97,4889.68 1341.86,3731.86 3732.11,3731.86 "/>
   <polygon fill="none" stroke="white" stroke-width="211.67" stroke-miterlimit="22.9256" points="9654.3,4889.94 8463.15,6073.17 6073.16,6073.17 6073.16,5387.37 6558.14,4902.65 6073.16,4417.66 6073.16,3731.86 8463.15,3731.86 "/>
   <polygon fill="none" stroke="white" stroke-width="211.67" stroke-miterlimit="22.9256" points="4902.64,6557.88 3732.11,7728.66 3212.74,8248.05 1533.68,8253.34 1557.23,6592.54 2076.35,6073.17 3247.13,4902.65 3732.11,5387.37 3732.11,6073.17 4417.65,6073.17 "/>
   <polygon fill="none" stroke="white" stroke-width="211.67" stroke-miterlimit="22.9256" points="8253.6,1533.69 8248.04,3212.48 7728.65,3731.86 6558.14,4902.65 6073.16,4417.66 6073.16,3731.86 5387.62,3731.86 4902.64,3246.88 6592.53,1556.97 "/>
   <polygon fill="none" stroke="white" stroke-width="211.67" stroke-miterlimit="22.9256" points="4902.64,3246.88 4417.65,3731.86 3732.11,3731.86 3732.11,4417.66 3247.13,4902.65 1557.23,3212.48 1551.67,1533.69 3212.74,1556.97 3732.11,2076.1 "/>
   <polygon fill="none" stroke="white" stroke-width="211.67" stroke-miterlimit="22.9256" points="8271.59,8253.34 6592.53,8248.05 4902.64,6557.88 5387.62,6073.17 6073.16,6073.17 6073.16,5387.37 6558.14,4902.65 7728.65,6073.17 8248.04,6592.54 "/>
  </g>
 </g>
</svg>
