<?xml version="1.0" encoding="UTF-8"?>
<!DOCTYPE svg PUBLIC "-//W3C//DTD SVG 1.1//EN" "http://www.w3.org/Graphics/SVG/1.1/DTD/svg11.dtd">
<!-- Creator: CorelDRAW -->
<svg xmlns="http://www.w3.org/2000/svg" xml:space="preserve" width="93.7585mm" height="93.7585mm" version="1.1" shape-rendering="geometricPrecision" text-rendering="geometricPrecision" image-rendering="optimizeQuality" fill-rule="evenodd" clip-rule="evenodd"
viewBox="0 0 9375.86 9375.86"
 xmlns:xlink="http://www.w3.org/1999/xlink"
 xmlns:xodm="http://www.corel.com/coreldraw/odm/2003">
 <g id="Layer_x0020_1">
  <metadata id="CorelCorpID_0Corel-Layer"/>
  <g id="b">
   <polygon fill="none" stroke="white" stroke-width="52.92" stroke-miterlimit="22.9256" points="5781.59,7328.6 5833.71,7276.48 5833.71,8172.36 4675.35,9338.11 3542.41,8172.36 3542.41,7276.75 3594.26,7328.6 "/>
   <polygon fill="none" stroke="white" stroke-width="52.92" stroke-miterlimit="22.9256" points="5833.71,1203.23 5833.71,2099.37 5781.59,2047.25 3594.26,2047.25 3542.41,2099.1 3542.41,1203.23 4675.35,37.74 "/>
   <polygon fill="none" stroke="white" stroke-width="52.92" stroke-miterlimit="22.9256" points="2047.25,5781.59 2099.37,5833.71 1203.23,5833.71 37.74,4675.35 1203.23,3542.41 2099.1,3542.41 2047.25,3594.26 "/>
   <polygon fill="none" stroke="white" stroke-width="52.92" stroke-miterlimit="22.9256" points="9338.11,4675.35 8172.36,5833.71 7276.48,5833.71 7328.34,5781.59 7328.34,3594.26 7276.75,3542.41 8172.36,3542.41 "/>
   <polygon fill="none" stroke="white" stroke-width="211.67" stroke-miterlimit="22.9256" points="953.46,4687.79 2047.25,3594.26 2047.25,5781.59 "/>
   <polygon fill="none" stroke="white" stroke-width="211.67" stroke-miterlimit="22.9256" points="4687.79,953.46 5781.59,2047.25 3594.26,2047.25 "/>
   <polygon fill="none" stroke="white" stroke-width="211.67" stroke-miterlimit="22.9256" points="3594.26,7328.6 5781.59,7328.6 4687.79,8422.13 "/>
   <polygon fill="none" stroke="white" stroke-width="211.67" stroke-miterlimit="22.9256" points="8422.13,4687.79 7328.34,5781.59 7328.34,3594.26 "/>
   <polygon fill="none" stroke="white" stroke-width="211.67" stroke-miterlimit="22.9256" points="3594.26,2047.25 2047.25,3594.26 2047.25,2047.25 "/>
   <polygon fill="none" stroke="white" stroke-width="211.67" stroke-miterlimit="22.9256" points="3542.41,7276.75 3594.26,7328.6 2047.25,7328.6 2047.25,5781.59 "/>
   <polygon fill="none" stroke="white" stroke-width="211.67" stroke-miterlimit="22.9256" points="7328.34,2047.25 7328.34,3594.26 7276.75,3542.41 5833.71,2099.37 5781.59,2047.25 "/>
   <polygon fill="none" stroke="white" stroke-width="211.67" stroke-miterlimit="22.9256" points="7276.48,5833.71 7328.34,5781.59 7328.34,7328.6 5781.59,7328.6 5833.71,7276.48 "/>
  </g>
 </g>
</svg>
