<?xml version="1.0" encoding="UTF-8"?>
<!DOCTYPE svg PUBLIC "-//W3C//DTD SVG 1.1//EN" "http://www.w3.org/Graphics/SVG/1.1/DTD/svg11.dtd">
<!-- Creator: CorelDRAW -->
<svg xmlns="http://www.w3.org/2000/svg" xml:space="preserve" width="93.674mm" height="93.674mm" version="1.1" shape-rendering="geometricPrecision" text-rendering="geometricPrecision" image-rendering="optimizeQuality" fill-rule="evenodd" clip-rule="evenodd"
viewBox="0 0 9367.4 9367.4"
 xmlns:xlink="http://www.w3.org/1999/xlink"
 xmlns:xodm="http://www.corel.com/coreldraw/odm/2003">
 <g id="Layer_x0020_1">
  <metadata id="CorelCorpID_0Corel-Layer"/>
  <g id="b">
   <g>
    <path fill="white" fill-rule="nonzero" d="M4683.57 2610.82l545.04 545.04 61.91 61.91 858.57 0.01 0 858.57 61.91 61.91 545.04 545.04 -545.04 545.04 -61.91 61.91 0 858.57 -858.57 0.01 -61.91 61.91 -545.04 545.04 -545.04 -545.04 -61.91 -61.91 -858.58 0 0 -858.57 -61.91 -61.91 -545.04 -545.04 545.04 -545.04 61.91 -61.91 0 -858.57 858.57 -0.01 61.91 -61.91 545.04 -545.04 0.01 -0.01zm0 -299.24l-694.8 694.8 -982.66 -0.01 0 982.66 -694.8 694.8 694.8 694.8 0 982.66 982.66 0 694.8 694.8 694.8 -694.8 982.66 0 0 -982.66 694.8 -694.8 -694.8 -694.8 0 -982.66 -982.67 0 -694.8 -694.8 0.01 0.01z"/>
   </g>
   <polyline fill="none" fill-rule="nonzero" stroke="white" stroke-width="52.92" stroke-miterlimit="22.9256" points="2311.58,4683.83 1274.15,3646.4 1914.17,3006.37 3006.37,3006.37 "/>
   <polyline fill="none" fill-rule="nonzero" stroke="white" stroke-width="52.92" stroke-miterlimit="22.9256" points="3006.37,3006.37 3006.37,1914.17 3646.14,1274.41 4683.57,2311.84 "/>
   <polyline fill="none" fill-rule="nonzero" stroke="white" stroke-width="52.92" stroke-miterlimit="22.9256" points="6361.03,3006.37 7453.23,3006.37 8093.25,3646.4 7055.82,4683.83 "/>
   <polyline fill="none" fill-rule="nonzero" stroke="white" stroke-width="52.92" stroke-miterlimit="22.9256" points="4683.57,2311.84 5721,1274.41 6361.03,1914.17 6361.03,3006.37 "/>
   <polyline fill="none" fill-rule="nonzero" stroke="white" stroke-width="52.92" stroke-miterlimit="22.9256" points="3006.37,6361.29 1914.17,6361.29 1274.15,5721.26 2311.58,4683.83 "/>
   <polyline fill="none" fill-rule="nonzero" stroke="white" stroke-width="52.92" stroke-miterlimit="22.9256" points="4683.57,7055.82 3646.14,8093.25 3006.37,7453.49 3006.37,6361.29 "/>
   <polyline fill="none" fill-rule="nonzero" stroke="white" stroke-width="52.92" stroke-miterlimit="22.9256" points="7055.82,4683.83 8093.25,5721.26 7453.23,6361.29 6361.03,6361.29 "/>
   <polyline fill="none" fill-rule="nonzero" stroke="white" stroke-width="52.92" stroke-miterlimit="22.9256" points="6361.03,6361.29 6361.03,7453.49 5721,8093.25 4683.57,7055.82 "/>
   <polygon fill="none" fill-rule="nonzero" stroke="white" stroke-width="211.67" stroke-miterlimit="22.9256" points="9217.73,4683.57 7889.79,3355.62 7889.79,1477.61 6011.78,1477.61 4683.57,149.67 3355.62,1477.61 1477.61,1477.61 1477.61,3355.62 149.67,4683.57 1477.61,6011.78 1477.61,7889.79 3355.62,7889.79 4683.57,9217.73 6011.78,7889.79 7889.79,7889.79 7889.79,6011.78 "/>
  </g>
 </g>
</svg>
