<?xml version="1.0" encoding="UTF-8"?>
<!DOCTYPE svg PUBLIC "-//W3C//DTD SVG 1.1//EN" "http://www.w3.org/Graphics/SVG/1.1/DTD/svg11.dtd">
<!-- Creator: CorelDRAW -->
<svg xmlns="http://www.w3.org/2000/svg" xml:space="preserve" width="264.84mm" height="177.777mm" version="1.1" shape-rendering="geometricPrecision" text-rendering="geometricPrecision" image-rendering="optimizeQuality" fill-rule="evenodd" clip-rule="evenodd"
viewBox="0 0 26483.74 17777.55"
 xmlns:xlink="http://www.w3.org/1999/xlink"
 xmlns:xodm="http://www.corel.com/coreldraw/odm/2003">
 <g id="Layer_x0020_1">
  <metadata id="CorelCorpID_0Corel-Layer"/>
  <g id="b">
   <polygon fill="none" stroke="white" stroke-width="211.67" stroke-miterlimit="22.9256" points="25148.13,14238.32 25148.13,3539.21 25939.23,2748.12 25148.13,1957.02 25148.13,951.35 24142.19,951.35 23340.52,149.68 22538.84,951.35 3944.91,951.35 3143.23,149.68 2341.55,951.35 1335.88,951.35 1335.88,1957.02 544.78,2748.12 1335.88,3539.21 1335.88,14238.32 544.78,15029.43 1335.88,15820.26 1335.88,16826.19 2341.55,16826.19 3143.23,17627.87 3944.91,16826.19 22538.84,16826.19 23340.52,17627.87 24142.19,16826.19 25148.13,16826.19 25148.13,15820.26 25939.23,15029.43 "/>
   <polygon fill="none" stroke="white" stroke-width="52.92" stroke-miterlimit="22.9256" points="21640.06,15029.43 23340.52,16729.88 25040.97,15029.43 23340.52,13328.7 23340.52,4448.58 25040.97,2748.12 23340.52,1047.66 21640.06,2748.12 4843.69,2748.12 3143.23,1047.66 1442.77,2748.12 3143.23,4448.58 3143.23,13328.7 1442.77,15029.43 3143.23,16729.88 4843.69,15029.43 "/>
   <path fill="none" stroke="white" stroke-width="211.67" stroke-miterlimit="22.9256" d="M23983.98 4538.27l0 -1103.3c0,-728.65 -590.8,-1319.47 -1319.47,-1319.47l-18845.02 0c-728.65,0 -1319.47,590.8 -1319.47,1319.47l0 1103.3c-1548.06,11.91 -877.35,3892.25 -2121.41,4254.46 1244.06,362.21 573.34,4242.55 2121.41,4254.46l0 1294.86c0,728.65 590.8,1319.47 1319.47,1319.47l18844.76 0c728.65,0 1319.47,-590.8 1319.47,-1319.47l0 -1294.86c1548.06,-11.91 877.35,-3892.25 2121.41,-4254.46 -1244.06,-362.21 -573.34,-4242.55 -2121.41,-4254.46l0.26 0z"/>
  </g>
 </g>
</svg>
