<?xml version="1.0" encoding="UTF-8"?>
<!DOCTYPE svg PUBLIC "-//W3C//DTD SVG 1.1//EN" "http://www.w3.org/Graphics/SVG/1.1/DTD/svg11.dtd">
<!-- Creator: CorelDRAW -->
<svg xmlns="http://www.w3.org/2000/svg" xml:space="preserve" width="210mm" height="297mm" version="1.1" shape-rendering="geometricPrecision" text-rendering="geometricPrecision" image-rendering="optimizeQuality" fill-rule="evenodd" clip-rule="evenodd"
viewBox="0 0 21000 29700"
 xmlns:xlink="http://www.w3.org/1999/xlink"
 xmlns:xodm="http://www.corel.com/coreldraw/odm/2003">
 <g id="Layer_x0020_1">
  <metadata id="CorelCorpID_0Corel-Layer"/>
  <g id="b">
   <polyline fill="none" stroke="black" stroke-width="211.67" stroke-miterlimit="22.9256" points="11860.75,15413.83 11860.75,14286.44 11063.83,13489.25 "/>
   <path fill="none" stroke="black" stroke-width="211.67" stroke-miterlimit="22.9256" d="M6852.98 13489.25l7294.04 0 492.13 492.13 0 1737.52 -492.13 492.13 -7294.04 -0.01c-192.09,-192.09 -300.04,-300.04 -492.13,-492.13l0.01 -1737.52c192.09,-192.09 300.04,-300.04 492.13,-492.13l-0.01 0.01z"/>
   <polygon fill="none" stroke="black" stroke-width="211.67" stroke-miterlimit="22.9256" points="6958.82,16466.6 12116.6,11308.82 12812.72,11308.82 14041.18,12537.28 14041.18,13233.4 8883.4,18391.18 8187.28,18391.18 6958.82,17162.72 "/>
   <path fill="none" stroke="black" stroke-width="211.67" stroke-miterlimit="22.9256" d="M11860.75 11202.98l0 7294.04c-192.09,192.09 -300.04,300.04 -492.13,492.13l-1737.25 -0.01 -492.13 -492.13 0.01 -7294.03c192.09,-192.09 300.04,-300.04 492.13,-492.13l1737.51 0.01c192.09,192.09 300.04,300.04 492.13,492.13l-0.27 -0.01z"/>
   <polygon fill="none" stroke="black" stroke-width="211.67" stroke-miterlimit="22.9256" points="8883.4,11308.82 14040.92,16466.34 14040.92,17162.46 12812.46,18390.92 12116.34,18390.92 6958.82,13233.4 6958.82,12537.28 8187.54,11308.82 8883.66,11308.82 "/>
   <path fill="none" stroke="black" stroke-width="52.92" stroke-miterlimit="22.9256" d="M11855.99 17146.85l-2711.98 0c-367.51,-367.51 -573.35,-573.35 -940.86,-940.86l0 -2711.98c367.51,-367.51 573.35,-573.35 940.86,-940.86l2711.98 0c367.51,367.51 573.35,573.35 940.86,940.86l0 2711.98 -940.86 940.86z"/>
  </g>
 </g>
</svg>
