<?xml version="1.0" encoding="UTF-8"?>
<!DOCTYPE svg PUBLIC "-//W3C//DTD SVG 1.1//EN" "http://www.w3.org/Graphics/SVG/1.1/DTD/svg11.dtd">
<!-- Creator: CorelDRAW -->
<svg xmlns="http://www.w3.org/2000/svg" xml:space="preserve" width="84.8997mm" height="84.8996mm" version="1.1" shape-rendering="geometricPrecision" text-rendering="geometricPrecision" image-rendering="optimizeQuality" fill-rule="evenodd" clip-rule="evenodd"
viewBox="0 0 8489.98 8489.97"
 xmlns:xlink="http://www.w3.org/1999/xlink"
 xmlns:xodm="http://www.corel.com/coreldraw/odm/2003">
 <g id="Layer_x0020_1">
  <metadata id="CorelCorpID_0Corel-Layer"/>
  <g id="b">
   <polyline fill="none" stroke="black" stroke-width="211.67" stroke-miterlimit="22.9256" points="5605.74,4808.82 5605.74,3681.42 4808.82,2884.23 "/>
   <path fill="none" stroke="black" stroke-width="211.67" stroke-miterlimit="22.9256" d="M597.96 2884.23l7294.05 0 492.13 492.13 0 1737.52 -492.13 492.13 -7294.05 -0.01c-192.09,-192.09 -300.04,-300.04 -492.13,-492.13l0.01 -1737.52c192.09,-192.09 300.04,-300.04 492.13,-492.13l-0.01 0.01z"/>
   <polygon fill="none" stroke="black" stroke-width="211.67" stroke-miterlimit="22.9256" points="703.8,5861.59 5861.59,703.8 6557.71,703.8 7786.17,1932.26 7786.17,2628.38 2628.38,7786.17 1932.26,7786.17 703.8,6557.71 "/>
   <path fill="none" stroke="black" stroke-width="211.67" stroke-miterlimit="22.9256" d="M5605.74 597.96l0 7294.05c-192.09,192.09 -300.04,300.04 -492.13,492.13l-1737.25 -0.01 -492.13 -492.13 0.01 -7294.04c192.09,-192.09 300.04,-300.04 492.13,-492.13l1737.51 0.01c192.09,192.09 300.04,300.04 492.13,492.13l-0.27 -0.01z"/>
   <polygon fill="none" stroke="black" stroke-width="211.67" stroke-miterlimit="22.9256" points="2628.38,703.8 7785.91,5861.33 7785.91,6557.45 6557.45,7785.91 5861.33,7785.91 703.8,2628.38 703.8,1932.26 1932.52,703.8 2628.64,703.8 "/>
   <path fill="none" stroke="black" stroke-width="52.92" stroke-miterlimit="22.9256" d="M5600.98 6541.84l-2711.98 0c-367.51,-367.51 -573.35,-573.35 -940.86,-940.86l0 -2711.98c367.51,-367.51 573.35,-573.35 940.86,-940.86l2711.98 0c367.51,367.51 573.35,573.35 940.86,940.86l0 2711.98 -940.86 940.86z"/>
  </g>
 </g>
</svg>
